<svg width="20" height="18" viewBox="0 0 20 18" fill="none" xmlns="http://www.w3.org/2000/svg">
<path fill-rule="evenodd" clip-rule="evenodd" d="M16.9965 9.75C17.42 9.75 17.7633 9.41421 17.7633 9C17.7633 4.85786 14.3301 1.5 10.095 1.5C5.85986 1.5 2.42664 4.85786 2.42664 9C2.42664 13.1421 5.85986 16.5 10.095 16.5C10.5185 16.5 10.8618 16.1642 10.8618 15.75C10.8618 15.3358 10.5185 15 10.095 15C6.70688 15 3.9603 12.3137 3.9603 9C3.9603 5.68629 6.70688 3 10.095 3C13.483 3 16.2296 5.68629 16.2296 9C16.2296 9.41421 16.573 9.75 16.9965 9.75ZM12.0729 15.5124C12.2377 15.8939 12.6876 16.0725 13.0777 15.9113C13.2222 15.8516 13.3647 15.7875 13.505 15.7193C15.002 14.9913 16.2206 13.7994 16.965 12.3353C17.0346 12.1983 17.1 12.0592 17.1609 11.9182C17.3258 11.5366 17.1433 11.0966 16.7532 10.9353C16.3631 10.7741 15.9132 10.9526 15.7483 11.3341C15.6996 11.4468 15.6474 11.558 15.5917 11.6675C14.9961 12.8389 14.0199 13.7937 12.8222 14.3762C12.71 14.4307 12.5962 14.4819 12.4807 14.5296C12.0906 14.6908 11.908 15.1308 12.0729 15.5124ZM12.8617 6.18458L8.60703 10.4786L7.32825 9.18805C7.08406 8.94195 6.68814 8.94195 6.44395 9.18805C6.19975 9.43416 6.19975 9.83318 6.44395 10.0793L8.16488 11.8154C8.40907 12.0615 8.80499 12.0615 9.04918 11.8154L13.746 7.07582C13.9902 6.82971 13.9902 6.43069 13.746 6.18458C13.5018 5.93847 13.1059 5.93847 12.8617 6.18458Z" fill="white"/>
</svg>
